<?xml version="1.0" standalone="no"?>
<!DOCTYPE svg PUBLIC "-//W3C//DTD SVG 20010904//EN"
 "http://www.w3.org/TR/2001/REC-SVG-20010904/DTD/svg10.dtd">
<svg version="1.0" xmlns="http://www.w3.org/2000/svg"
 width="626.000000pt" height="626.000000pt" viewBox="0 0 626.000000 626.000000"
 preserveAspectRatio="xMidYMid meet">

<g transform="translate(0.000000,626.000000) scale(0.100000,-0.100000)"
fill="#000000" stroke="none">
<path d="M0 3130 l0 -3130 3130 0 3130 0 0 3130 0 3130 -3130 0 -3130 0 0
-3130z m3570 1680 l0 -59 123 -3 122 -3 3 -62 3 -63 59 0 60 0 0 -60 0 -60 60
0 59 0 3 -62 3 -63 63 -3 62 -3 0 -122 0 -122 60 3 60 4 0 -442 0 -441 -62 3
-63 3 -3 123 -3 122 -59 0 -60 0 0 -185 0 -185 65 0 65 0 -2 -187 -3 -188 -62
-3 -63 -3 0 -59 0 -60 -60 0 -60 0 0 -435 0 -435 -62 0 -63 0 3 -60 4 -60 -66
0 -66 0 0 -65 0 -65 -125 0 -125 0 0 -60 0 -60 -310 0 -310 0 0 60 0 60 -125
0 -125 0 0 65 0 65 -65 0 -65 0 0 60 0 60 -60 0 -60 0 0 435 0 435 -60 0 -60
0 0 60 0 59 -62 3 -63 3 -3 188 -2 187 65 0 65 0 0 185 0 185 -60 0 -60 0 0
-125 0 -125 -65 0 -65 0 0 440 0 440 60 0 60 0 0 120 0 119 63 3 62 3 3 63 3
62 59 0 60 0 0 60 0 60 60 0 59 0 3 63 3 62 123 3 122 3 0 59 0 60 440 0 440
0 0 -60z"/>
<path d="M2448 3438 l-3 -63 -57 0 -57 0 -3 -182 -3 -183 248 0 247 0 0 60 0
60 60 0 60 0 0 185 0 185 -245 0 -244 0 -3 -62z"/>
<path d="M3320 3315 l0 -185 60 0 60 0 0 -60 0 -60 248 0 247 0 -2 182 -2 183
-58 1 -58 1 -3 61 -3 62 -244 0 -245 0 0 -185z"/>
<path d="M3070 3065 l0 -65 -60 0 -60 0 0 -182 0 -183 57 1 58 2 3 61 3 61 59
0 60 0 0 -59 0 -59 60 -4 60 -3 0 183 0 182 -60 0 -60 0 0 65 0 65 -60 0 -60
0 0 -65z"/>
<path d="M2450 2260 l0 -250 60 0 60 0 0 -60 0 -60 60 0 60 0 0 60 0 60 190 0
190 0 0 -60 0 -60 60 0 60 0 0 125 0 125 65 0 65 0 0 -65 0 -65 125 0 125 0 0
-60 0 -60 60 0 60 0 0 60 0 60 60 0 60 0 0 250 0 250 -60 0 -60 0 0 -125 0
-125 -60 0 -59 0 -3 -62 -3 -63 -62 -3 -63 -3 0 66 0 65 -310 0 -310 0 0 -65
0 -66 -62 3 -63 3 -3 63 -3 62 -59 0 -60 0 0 125 0 125 -60 0 -60 0 0 -250z"/>
</g>
</svg>
