<svg id="svg" version="1.1" xmlns="http://www.w3.org/2000/svg" xmlns:xlink="http://www.w3.org/1999/xlink" width="400" height="400" viewBox="0, 0, 400,400"><g id="svgg"><path id="path0" d="M172.314 93.100 L 172.200 97.000 164.300 97.108 L 156.400 97.217 156.400 100.994 L 156.400 104.771 152.500 104.886 L 148.600 105.000 148.486 108.900 L 148.371 112.800 144.600 112.800 L 140.829 112.800 140.714 116.700 L 140.600 120.600 136.700 120.714 L 132.800 120.829 132.800 128.182 C 132.800 137.515,133.152 136.800,128.557 136.800 L 124.800 136.800 124.800 164.415 L 124.800 192.030 128.500 191.915 L 132.200 191.800 132.400 184.000 L 132.600 176.200 136.600 176.200 L 140.600 176.200 140.706 188.052 L 140.812 199.904 139.906 200.146 C 139.408 200.280,137.605 200.392,135.900 200.395 L 132.800 200.400 132.800 212.000 L 132.800 223.600 136.557 223.600 C 140.973 223.600,140.800 223.411,140.800 228.233 L 140.800 231.600 144.600 231.600 L 148.400 231.600 148.400 259.386 L 148.400 287.171 152.300 287.286 L 156.200 287.400 156.400 291.200 L 156.600 295.000 160.486 295.114 L 164.371 295.229 164.486 299.114 L 164.600 303.000 172.500 303.108 L 180.400 303.217 180.400 307.008 L 180.400 310.800 200.000 310.800 L 219.600 310.800 219.600 307.000 L 219.600 303.200 227.600 303.200 L 235.600 303.200 235.600 299.214 L 235.600 295.229 239.500 295.114 L 243.400 295.000 243.514 291.100 L 243.629 287.200 247.614 287.200 L 251.600 287.200 251.600 259.400 L 251.600 231.600 255.400 231.600 L 259.200 231.600 259.200 228.233 C 259.200 223.411,259.026 223.600,263.449 223.600 L 267.212 223.600 267.106 211.935 L 267.000 200.271 263.921 200.361 C 258.831 200.510,259.200 201.477,259.200 187.994 L 259.200 176.415 260.101 176.189 C 260.597 176.065,262.442 176.016,264.201 176.081 L 267.400 176.200 267.600 184.000 L 267.800 191.800 271.500 191.915 L 275.200 192.030 275.200 164.415 L 275.200 136.800 271.443 136.800 C 266.848 136.800,267.200 137.515,267.200 128.182 L 267.200 120.829 263.300 120.714 L 259.400 120.600 259.286 116.700 L 259.171 112.800 255.400 112.800 L 251.629 112.800 251.514 108.900 L 251.400 105.000 247.500 104.886 L 243.600 104.771 243.600 100.994 L 243.600 97.217 235.700 97.108 L 227.800 97.000 227.686 93.100 L 227.571 89.200 200.000 89.200 L 172.429 89.200 172.314 93.100 M188.088 187.839 C 188.160 195.420,188.056 199.767,187.800 199.928 C 187.279 200.255,187.147 200.267,183.500 200.339 L 180.400 200.400 180.400 204.200 L 180.400 208.000 164.400 208.000 L 148.400 208.000 148.400 196.014 L 148.400 184.029 152.300 183.914 L 156.200 183.800 156.307 180.400 C 156.367 178.530,156.496 176.775,156.595 176.500 C 156.735 176.112,160.258 176.000,172.376 176.000 L 187.977 176.000 188.088 187.839 M243.600 180.000 L 243.800 183.800 247.700 183.914 L 251.600 184.029 251.600 196.014 L 251.600 208.000 235.600 208.000 L 219.600 208.000 219.600 204.200 L 219.600 200.400 216.400 200.350 C 214.640 200.322,212.975 200.278,212.700 200.250 C 212.200 200.200,211.711 177.730,212.183 176.500 C 212.338 176.097,215.618 176.012,227.889 176.095 L 243.400 176.200 243.600 180.000 M204.086 203.900 L 204.200 207.800 208.106 207.915 L 212.012 208.029 211.906 219.915 L 211.800 231.800 208.033 231.916 C 203.515 232.055,203.614 232.154,203.606 227.500 L 203.600 224.000 200.000 224.000 L 196.400 224.000 196.394 227.500 C 196.386 232.154,196.485 232.055,191.967 231.916 L 188.200 231.800 188.094 219.900 L 187.988 208.000 191.994 208.000 L 196.000 208.000 196.000 204.000 L 196.000 200.000 199.986 200.000 L 203.971 200.000 204.086 203.900 M164.492 247.500 L 164.600 255.400 168.500 255.514 L 172.400 255.629 172.400 259.414 L 172.400 263.200 176.200 263.200 L 180.000 263.200 180.000 259.400 L 180.000 255.600 200.000 255.600 L 220.000 255.600 220.000 259.400 L 220.000 263.200 223.800 263.200 L 227.600 263.200 227.600 259.414 L 227.600 255.629 231.500 255.514 L 235.400 255.400 235.508 247.500 L 235.617 239.600 239.608 239.600 L 243.600 239.600 243.600 255.600 L 243.600 271.600 239.814 271.600 L 236.029 271.600 235.914 275.500 L 235.800 279.400 231.800 279.400 L 227.800 279.400 227.686 275.500 L 227.571 271.600 219.800 271.600 L 212.029 271.600 211.914 267.700 L 211.800 263.800 208.000 263.800 L 204.200 263.800 204.092 271.700 L 203.983 279.600 199.992 279.600 L 196.000 279.600 196.000 275.600 L 196.000 271.600 184.214 271.600 L 172.429 271.600 172.314 275.500 L 172.200 279.400 168.200 279.400 L 164.200 279.400 164.086 275.500 L 163.971 271.600 160.186 271.600 L 156.400 271.600 156.400 255.600 L 156.400 239.600 160.392 239.600 L 164.383 239.600 164.492 247.500 " stroke="none" fill="#fafafa" fill-rule="evenodd"></path><path id="path1" d="M0.000 200.000 L 0.000 400.000 200.000 400.000 L 400.000 400.000 400.000 200.000 L 400.000 0.000 200.000 0.000 L 0.000 0.000 0.000 200.000 M228.315 92.691 L 228.430 96.383 236.115 96.491 L 243.800 96.600 243.914 100.486 L 244.029 104.371 247.914 104.486 L 251.800 104.600 251.914 108.486 L 252.029 112.371 255.914 112.486 L 259.800 112.600 259.915 116.300 L 260.030 120.000 263.535 120.000 C 268.233 120.000,268.000 119.558,268.000 128.465 L 268.000 135.970 271.700 136.085 L 275.400 136.200 275.503 164.300 L 275.605 192.400 271.445 192.400 C 266.384 192.400,266.800 193.173,266.800 183.767 L 266.800 176.400 263.394 176.400 L 259.988 176.400 260.094 188.062 L 260.200 199.724 263.407 199.639 C 268.458 199.505,268.000 198.311,268.000 211.610 C 268.000 225.673,268.422 224.400,263.757 224.400 L 260.000 224.400 260.000 228.200 L 260.000 232.000 256.000 232.000 L 252.000 232.000 252.000 259.786 L 252.000 287.571 248.100 287.686 L 244.200 287.800 244.086 291.700 L 243.971 295.600 239.986 295.600 L 236.000 295.600 236.000 299.600 L 236.000 303.600 228.100 303.600 L 220.200 303.600 220.341 307.009 C 220.551 312.063,222.604 311.600,200.000 311.600 C 177.396 311.600,179.449 312.063,179.659 307.009 L 179.800 303.600 171.900 303.600 L 164.000 303.600 164.000 299.576 L 164.000 295.552 160.500 295.602 C 158.575 295.630,156.782 295.641,156.514 295.626 C 156.177 295.608,155.994 294.410,155.914 291.700 L 155.800 287.800 151.900 287.686 L 148.000 287.571 148.000 259.786 L 148.000 232.000 144.000 232.000 L 140.000 232.000 140.000 228.200 L 140.000 224.400 136.243 224.400 C 131.578 224.400,132.000 225.673,132.000 211.610 C 132.000 198.343,131.515 199.600,136.633 199.600 L 140.000 199.600 140.000 188.000 L 140.000 176.400 136.600 176.400 L 133.200 176.400 133.200 183.767 C 133.200 187.819,133.091 191.419,132.957 191.767 C 132.640 192.595,124.577 192.719,124.343 191.900 C 124.264 191.625,124.290 178.980,124.400 163.800 L 124.600 136.200 128.300 136.085 L 132.000 135.970 132.000 128.465 C 132.000 119.558,131.767 120.000,136.465 120.000 L 139.970 120.000 140.085 116.300 L 140.200 112.600 144.086 112.486 L 147.971 112.371 148.086 108.486 L 148.200 104.600 152.100 104.486 L 156.000 104.371 156.000 100.386 L 156.000 96.400 163.800 96.400 L 171.600 96.400 171.600 92.867 C 171.600 90.923,171.721 89.212,171.869 89.064 C 172.017 88.916,184.752 88.841,200.169 88.897 L 228.200 89.000 228.315 92.691 M156.800 179.967 C 156.800 185.015,156.989 184.800,152.557 184.800 L 148.800 184.800 148.800 196.200 L 148.800 207.600 164.300 207.600 L 179.800 207.600 179.663 204.080 C 179.489 199.600,179.595 199.496,184.178 199.670 L 187.602 199.800 187.601 188.100 L 187.600 176.400 172.200 176.400 L 156.800 176.400 156.800 179.967 M212.399 188.100 L 212.398 199.800 215.822 199.670 C 220.405 199.496,220.511 199.600,220.337 204.080 L 220.200 207.600 235.700 207.600 L 251.200 207.600 251.200 196.200 L 251.200 184.800 247.443 184.800 C 243.011 184.800,243.200 185.015,243.200 179.967 L 243.200 176.400 227.800 176.400 L 212.400 176.400 212.399 188.100 M196.400 204.386 L 196.400 208.371 192.596 208.486 L 188.793 208.600 188.696 219.900 L 188.600 231.200 192.100 231.200 L 195.600 231.200 195.600 227.400 L 195.600 223.600 200.000 223.600 L 204.400 223.600 204.400 227.400 L 204.400 231.200 208.006 231.200 L 211.612 231.200 211.506 219.900 L 211.400 208.600 207.600 208.400 L 203.800 208.200 203.686 204.300 L 203.571 200.400 199.986 200.400 L 196.400 200.400 196.400 204.386 M156.800 255.600 L 156.800 270.800 160.320 270.800 C 164.770 270.800,164.800 270.832,164.800 275.480 L 164.800 279.200 168.200 279.200 L 171.600 279.200 171.600 275.449 C 171.600 270.404,170.571 270.769,184.448 270.894 L 196.200 271.000 196.314 275.100 L 196.428 279.200 200.006 279.200 L 203.583 279.200 203.692 271.300 L 203.800 263.400 208.000 263.400 L 212.200 263.400 212.315 267.100 L 212.430 270.800 219.935 270.800 C 228.881 270.800,228.400 270.534,228.400 275.480 L 228.400 279.200 231.800 279.200 L 235.200 279.200 235.200 275.480 C 235.200 270.832,235.230 270.800,239.680 270.800 L 243.200 270.800 243.200 255.600 L 243.200 240.400 239.609 240.400 L 236.017 240.400 235.909 248.100 L 235.800 255.800 232.100 255.915 L 228.400 256.030 228.400 259.382 C 228.400 264.224,228.624 264.000,223.772 264.000 L 219.629 264.000 219.514 260.100 L 219.400 256.200 200.000 256.200 L 180.600 256.200 180.486 260.100 L 180.371 264.000 176.228 264.000 C 171.376 264.000,171.600 264.224,171.600 259.382 L 171.600 256.030 167.900 255.915 L 164.200 255.800 164.091 248.100 L 163.983 240.400 160.391 240.400 L 156.800 240.400 156.800 255.600 " stroke="none" fill="#0b0b0b" fill-rule="evenodd"></path><path id="path2" d="M172.269 89.064 C 172.121 89.212,172.000 91.010,172.000 93.058 L 172.000 96.783 164.100 96.905 L 156.200 97.027 164.200 97.013 L 172.200 97.000 172.314 93.100 L 172.429 89.200 200.000 89.200 L 227.571 89.200 227.686 93.100 L 227.800 97.000 235.600 97.013 L 243.400 97.025 235.714 96.904 L 228.029 96.783 227.914 92.892 L 227.800 89.000 200.169 88.897 C 184.973 88.841,172.418 88.916,172.269 89.064 M243.731 100.200 C 243.733 101.740,243.805 102.321,243.892 101.491 C 243.979 100.661,243.977 99.401,243.889 98.691 C 243.800 97.981,243.729 98.660,243.731 100.200 M140.482 116.467 C 140.426 119.120,140.243 120.397,139.900 120.535 C 139.508 120.693,139.511 120.744,139.913 120.768 C 140.707 120.817,140.844 120.018,140.699 116.168 L 140.565 112.600 140.482 116.467 M259.375 116.568 C 259.395 119.741,259.520 120.568,260.000 120.698 C 260.427 120.814,260.461 120.762,260.116 120.517 C 259.815 120.303,259.579 118.743,259.491 116.386 L 259.350 112.600 259.375 116.568 M132.567 128.400 C 132.567 132.690,132.626 134.445,132.698 132.300 C 132.770 130.155,132.770 126.645,132.698 124.500 C 132.626 122.355,132.567 124.110,132.567 128.400 M267.367 128.400 C 267.367 132.690,267.426 134.445,267.498 132.300 C 267.570 130.155,267.570 126.645,267.498 124.500 C 267.426 122.355,267.367 124.110,267.367 128.400 M124.584 136.900 C 124.479 137.175,124.441 149.640,124.499 164.600 L 124.606 191.800 124.703 164.314 L 124.800 136.829 128.700 136.698 L 132.600 136.567 128.687 136.484 C 125.862 136.423,124.722 136.539,124.584 136.900 M271.396 136.692 L 275.194 136.829 275.301 164.114 L 275.408 191.400 275.404 164.000 L 275.400 136.600 271.499 136.577 L 267.598 136.554 271.396 136.692 M132.596 176.485 C 132.491 176.768,132.360 180.330,132.303 184.400 L 132.200 191.800 128.600 192.024 L 125.000 192.249 128.267 192.324 C 133.182 192.438,132.800 193.127,132.800 184.157 L 132.800 176.400 136.594 176.400 L 140.388 176.400 140.503 188.100 L 140.618 199.800 140.609 188.000 L 140.600 176.200 136.693 176.085 C 133.789 176.000,132.737 176.103,132.596 176.485 M164.500 176.300 C 168.845 176.364,175.955 176.364,180.300 176.300 C 184.645 176.235,181.090 176.182,172.400 176.182 C 163.710 176.182,160.155 176.235,164.500 176.300 M219.874 176.299 C 224.094 176.364,231.114 176.364,235.474 176.300 C 239.833 176.235,236.380 176.182,227.800 176.182 C 219.220 176.182,215.653 176.235,219.874 176.299 M263.700 176.293 L 267.200 176.430 267.200 183.935 C 267.200 192.889,266.947 192.426,271.780 192.323 L 275.400 192.247 271.600 192.023 L 267.800 191.800 267.600 184.000 L 267.400 176.200 263.800 176.178 L 260.200 176.155 263.700 176.293 M259.377 188.000 C 259.377 194.490,259.432 197.145,259.499 193.900 C 259.566 190.655,259.566 185.345,259.499 182.100 C 259.432 178.855,259.377 181.510,259.377 188.000 M152.300 183.898 C 150.155 183.970,148.400 184.157,148.399 184.314 C 148.398 184.733,155.733 184.411,156.180 183.973 C 156.389 183.768,156.479 183.638,156.380 183.684 C 156.281 183.730,154.445 183.826,152.300 183.898 M243.918 184.073 C 244.293 184.436,251.602 184.677,251.601 184.327 C 251.600 184.176,249.808 183.996,247.618 183.927 C 245.428 183.857,243.763 183.923,243.918 184.073 M132.494 211.900 L 132.600 223.800 136.501 223.823 L 140.402 223.846 136.601 223.708 L 132.800 223.571 132.800 212.001 L 132.800 200.431 136.300 200.298 L 139.800 200.165 136.094 200.082 L 132.388 200.000 132.494 211.900 M180.169 200.535 C 180.056 200.830,180.026 202.495,180.102 204.235 L 180.239 207.400 180.320 203.917 L 180.400 200.434 183.500 200.297 L 186.600 200.161 183.487 200.080 C 181.198 200.021,180.321 200.142,180.169 200.535 M216.486 200.292 L 219.571 200.432 219.709 204.217 L 219.846 208.002 219.823 204.101 L 219.800 200.200 216.600 200.176 L 213.400 200.152 216.486 200.292 M261.911 200.293 C 262.851 200.378,264.291 200.377,265.111 200.291 C 265.930 200.205,265.160 200.136,263.400 200.137 C 261.640 200.139,260.970 200.209,261.911 200.293 M267.112 211.785 L 267.223 223.571 263.411 223.708 L 259.598 223.846 263.499 223.823 L 267.400 223.800 267.506 211.900 C 267.564 205.355,267.474 200.000,267.306 200.000 C 267.138 200.000,267.050 205.303,267.112 211.785 M188.094 219.900 L 188.200 231.800 191.967 231.916 C 196.485 232.055,196.386 232.154,196.394 227.500 L 196.400 224.000 200.000 224.000 L 203.600 224.000 203.600 227.367 C 203.600 232.186,203.430 232.000,207.819 232.000 C 209.873 232.000,211.637 231.865,211.739 231.700 C 211.841 231.535,210.187 231.400,208.063 231.400 L 204.200 231.400 204.000 227.600 L 203.800 223.800 200.000 223.800 L 196.200 223.800 196.000 227.600 L 195.800 231.400 192.088 231.515 L 188.377 231.630 188.488 219.815 C 188.550 213.316,188.462 208.000,188.294 208.000 C 188.126 208.000,188.036 213.355,188.094 219.900 M211.502 215.500 C 211.696 229.670,211.831 230.981,211.916 219.500 C 211.962 213.175,211.865 208.000,211.700 208.000 C 211.535 207.999,211.446 211.374,211.502 215.500 M140.578 228.200 L 140.600 231.800 144.501 231.823 L 148.402 231.846 144.616 231.709 L 140.830 231.571 140.692 228.086 L 140.555 224.600 140.578 228.200 M259.281 227.886 L 259.200 231.571 255.300 231.702 L 251.400 231.833 255.313 231.916 C 259.895 232.014,259.687 232.231,259.499 227.567 L 259.363 224.200 259.281 227.886 M158.700 239.893 C 159.635 239.977,161.165 239.977,162.100 239.893 C 163.035 239.809,162.270 239.740,160.400 239.740 C 158.530 239.740,157.765 239.809,158.700 239.893 M235.599 239.900 C 235.599 240.065,236.724 240.150,238.099 240.089 C 242.614 239.888,243.062 239.729,239.300 239.664 C 237.265 239.629,235.600 239.735,235.599 239.900 M172.177 259.499 L 172.200 263.400 176.200 263.400 L 180.200 263.400 180.223 259.499 L 180.246 255.598 180.108 259.399 L 179.971 263.200 176.200 263.200 L 172.429 263.200 172.292 259.399 L 172.154 255.598 172.177 259.499 M219.777 259.499 L 219.800 263.400 223.800 263.400 L 227.800 263.400 227.823 259.499 L 227.846 255.598 227.708 259.399 L 227.571 263.200 223.800 263.200 L 220.029 263.200 219.892 259.399 L 219.754 255.598 219.777 259.499 M205.900 263.489 C 206.615 263.578,207.785 263.578,208.500 263.489 C 209.215 263.401,208.630 263.328,207.200 263.328 C 205.770 263.328,205.185 263.401,205.900 263.489 M160.486 271.489 L 163.971 271.631 164.086 275.515 L 164.200 279.400 168.200 279.400 L 172.200 279.400 172.223 275.499 L 172.246 271.598 172.108 275.399 L 171.971 279.200 168.200 279.200 L 164.429 279.200 164.314 275.300 L 164.200 271.400 160.600 271.374 L 157.000 271.347 160.486 271.489 M178.524 271.499 C 181.783 271.567,187.003 271.566,190.124 271.499 C 193.246 271.431,190.580 271.376,184.200 271.377 C 177.820 271.377,175.266 271.432,178.524 271.499 M215.700 271.498 C 217.845 271.570,221.355 271.570,223.500 271.498 C 225.645 271.426,223.890 271.367,219.600 271.367 C 215.310 271.367,213.555 271.426,215.700 271.498 M235.867 271.467 C 235.720 271.613,235.600 273.413,235.600 275.467 L 235.600 279.200 231.814 279.200 L 228.029 279.200 227.892 275.399 L 227.754 271.598 227.777 275.499 L 227.800 279.400 231.800 279.400 L 235.800 279.400 235.914 275.514 L 236.029 271.629 239.914 271.498 L 243.800 271.367 239.967 271.284 C 237.858 271.238,236.013 271.320,235.867 271.467 M197.900 279.495 C 199.055 279.576,200.945 279.576,202.100 279.495 C 203.255 279.414,202.310 279.348,200.000 279.348 C 197.690 279.348,196.745 279.414,197.900 279.495 M149.800 287.454 C 152.628 287.750,156.312 287.777,156.139 287.500 C 156.037 287.335,154.298 287.229,152.276 287.264 C 150.254 287.299,149.140 287.385,149.800 287.454 M245.513 287.495 C 246.676 287.576,248.476 287.576,249.513 287.493 C 250.551 287.411,249.600 287.345,247.400 287.346 C 245.200 287.347,244.351 287.414,245.513 287.495 M156.101 292.200 C 156.105 293.080,156.187 293.393,156.283 292.895 C 156.379 292.398,156.375 291.678,156.275 291.295 C 156.175 290.913,156.096 291.320,156.101 292.200 M219.682 306.900 L 219.600 310.800 200.016 310.800 L 180.431 310.800 180.289 307.300 L 180.147 303.800 180.174 307.400 L 180.200 311.000 199.911 311.104 C 216.079 311.189,219.659 311.111,219.828 310.672 C 219.941 310.378,219.973 308.531,219.899 306.568 L 219.765 303.000 219.682 306.900 " stroke="none" fill="#8c8c8c" fill-rule="evenodd"></path><path id="path3" d="M171.867 89.067 C 171.720 89.213,171.600 90.923,171.600 92.867 L 171.600 96.400 163.800 96.400 C 159.510 96.400,156.000 96.535,155.999 96.700 C 155.999 96.865,159.554 96.910,163.899 96.800 L 171.800 96.600 172.000 92.699 C 172.110 90.554,172.185 88.799,172.167 88.799 C 172.148 88.800,172.013 88.920,171.867 89.067 M228.000 92.737 L 228.200 96.600 236.063 96.800 C 240.387 96.910,243.841 96.865,243.739 96.700 C 243.637 96.535,240.143 96.400,235.976 96.400 L 228.400 96.400 228.400 92.824 C 228.400 90.857,228.265 89.163,228.100 89.060 C 227.935 88.958,227.890 90.612,228.000 92.737 M148.171 104.932 C 148.059 105.224,148.027 107.069,148.101 109.032 L 148.235 112.600 148.318 108.714 L 148.400 104.829 152.300 104.698 L 156.200 104.567 152.287 104.484 C 149.342 104.421,148.324 104.531,148.171 104.932 M247.785 104.691 L 251.571 104.829 251.707 108.514 L 251.843 112.200 251.822 108.400 L 251.800 104.600 247.899 104.577 L 243.998 104.554 247.785 104.691 M140.267 112.667 C 140.120 112.813,140.000 114.523,140.000 116.467 L 140.000 120.000 136.480 120.000 C 131.764 120.000,132.000 119.553,132.000 128.480 L 132.000 136.000 128.424 136.000 C 126.457 136.000,124.763 136.135,124.660 136.300 C 124.558 136.465,126.212 136.510,128.337 136.400 L 132.200 136.200 132.400 128.400 L 132.600 120.600 136.474 120.486 L 140.347 120.372 140.474 116.385 C 140.543 114.192,140.585 112.399,140.567 112.399 C 140.548 112.400,140.413 112.520,140.267 112.667 M259.600 116.337 L 259.800 120.200 263.600 120.400 L 267.400 120.600 267.600 128.400 L 267.800 136.200 271.663 136.400 C 273.788 136.510,275.442 136.465,275.340 136.300 C 275.237 136.135,273.543 136.000,271.576 136.000 L 268.000 136.000 268.000 128.480 C 268.000 119.553,268.236 120.000,263.520 120.000 L 260.000 120.000 260.000 116.424 C 260.000 114.457,259.865 112.763,259.700 112.660 C 259.535 112.558,259.490 114.212,259.600 116.337 M132.967 184.000 C 132.967 188.290,133.026 190.045,133.098 187.900 C 133.170 185.755,133.170 182.245,133.098 180.100 C 133.026 177.955,132.967 179.710,132.967 184.000 M140.094 187.885 L 140.000 199.570 136.300 199.702 L 132.600 199.834 136.313 199.917 C 140.874 200.019,140.436 201.371,140.300 187.595 L 140.187 176.200 140.094 187.885 M156.546 180.200 C 156.547 182.400,156.614 183.249,156.695 182.087 C 156.776 180.924,156.776 179.124,156.693 178.087 C 156.611 177.049,156.545 178.000,156.546 180.200 M187.777 188.200 C 187.777 194.800,187.832 197.556,187.899 194.325 C 187.966 191.093,187.966 185.693,187.899 182.325 C 187.832 178.956,187.777 181.600,187.777 188.200 M212.177 188.200 C 212.177 194.800,212.232 197.556,212.299 194.325 C 212.366 191.093,212.366 185.693,212.299 182.325 C 212.232 178.956,212.177 181.600,212.177 188.200 M243.346 180.200 C 243.347 182.400,243.414 183.249,243.495 182.087 C 243.576 180.924,243.576 179.124,243.493 178.087 C 243.411 177.049,243.345 178.000,243.346 180.200 M259.685 187.876 C 259.638 194.298,259.735 199.636,259.900 199.739 C 260.065 199.841,260.154 196.477,260.098 192.262 C 259.902 177.666,259.770 176.254,259.685 187.876 M266.967 184.000 C 266.967 188.290,267.026 190.045,267.098 187.900 C 267.170 185.755,267.170 182.245,267.098 180.100 C 267.026 177.955,266.967 179.710,266.967 184.000 M150.713 184.695 C 151.876 184.776,153.676 184.776,154.713 184.693 C 155.751 184.611,154.800 184.545,152.600 184.546 C 150.400 184.547,149.551 184.614,150.713 184.695 M245.513 184.695 C 246.676 184.776,248.476 184.776,249.513 184.693 C 250.551 184.611,249.600 184.545,247.400 184.546 C 245.200 184.547,244.351 184.614,245.513 184.695 M124.093 190.400 C 124.093 191.170,124.175 191.485,124.276 191.100 C 124.376 190.715,124.376 190.085,124.276 189.700 C 124.175 189.315,124.093 189.630,124.093 190.400 M182.112 199.895 C 183.164 199.977,184.784 199.976,185.712 199.892 C 186.640 199.808,185.780 199.741,183.800 199.742 C 181.820 199.743,181.060 199.812,182.112 199.895 M214.512 199.895 C 215.564 199.977,217.184 199.976,218.112 199.892 C 219.040 199.808,218.180 199.741,216.200 199.742 C 214.220 199.743,213.460 199.812,214.512 199.895 M262.300 199.893 C 263.235 199.977,264.765 199.977,265.700 199.893 C 266.635 199.809,265.870 199.740,264.000 199.740 C 262.130 199.740,261.365 199.809,262.300 199.893 M132.177 211.800 C 132.177 218.400,132.232 221.156,132.299 217.925 C 132.366 214.693,132.366 209.293,132.299 205.925 C 132.232 202.556,132.177 205.200,132.177 211.800 M198.100 200.294 C 199.145 200.376,200.855 200.376,201.900 200.294 C 202.945 200.212,202.090 200.144,200.000 200.144 C 197.910 200.144,197.055 200.212,198.100 200.294 M267.777 211.800 C 267.777 218.400,267.832 221.156,267.899 217.925 C 267.966 214.693,267.966 209.293,267.899 205.925 C 267.832 202.556,267.777 205.200,267.777 211.800 M179.740 203.600 C 179.740 205.470,179.809 206.235,179.893 205.300 C 179.977 204.365,179.977 202.835,179.893 201.900 C 179.809 200.965,179.740 201.730,179.740 203.600 M220.140 203.600 C 220.140 205.470,220.209 206.235,220.293 205.300 C 220.377 204.365,220.377 202.835,220.293 201.900 C 220.209 200.965,220.140 201.730,220.140 203.600 M196.146 204.600 C 196.147 206.800,196.214 207.649,196.295 206.487 C 196.376 205.324,196.376 203.524,196.293 202.487 C 196.211 201.449,196.145 202.400,196.146 204.600 M203.664 204.276 C 203.629 206.298,203.735 208.037,203.900 208.139 C 204.065 208.242,204.150 207.128,204.090 205.663 C 203.897 201.023,203.730 200.479,203.664 204.276 M188.575 219.600 C 188.575 225.430,188.631 227.815,188.699 224.900 C 188.767 221.985,188.767 217.215,188.699 214.300 C 188.631 211.385,188.575 213.770,188.575 219.600 M195.600 227.385 L 195.600 231.170 191.900 231.310 L 188.200 231.450 192.000 231.425 L 195.800 231.400 196.000 227.499 C 196.110 225.354,196.065 223.599,195.900 223.599 C 195.735 223.600,195.600 225.303,195.600 227.385 M204.177 227.499 L 204.200 231.400 208.000 231.425 L 211.800 231.450 208.114 231.310 L 204.429 231.170 204.291 227.384 L 204.154 223.598 204.177 227.499 M136.199 224.292 L 140.000 224.429 140.000 228.214 C 140.000 230.297,140.135 232.000,140.300 232.001 C 140.465 232.001,140.510 230.246,140.400 228.101 L 140.200 224.200 136.299 224.177 L 132.398 224.154 136.199 224.292 M259.771 224.532 C 259.659 224.824,259.627 226.669,259.701 228.632 L 259.835 232.200 259.918 228.314 L 260.000 224.429 263.900 224.298 L 267.800 224.167 263.887 224.084 C 260.942 224.021,259.924 224.131,259.771 224.532 M148.189 259.800 C 148.189 275.200,148.239 281.442,148.300 273.671 C 148.361 265.900,148.361 253.300,148.300 245.671 C 148.239 238.042,148.189 244.400,148.189 259.800 M251.789 259.800 C 251.789 275.200,251.839 281.442,251.900 273.671 C 251.961 265.900,251.961 253.300,251.900 245.671 C 251.839 238.042,251.789 244.400,251.789 259.800 M156.588 240.486 C 156.479 240.770,156.437 247.752,156.495 256.001 L 156.600 271.000 160.400 271.200 L 164.200 271.400 164.423 275.400 L 164.645 279.400 164.723 275.580 C 164.819 270.814,164.807 270.800,160.320 270.800 L 156.800 270.800 156.800 255.600 L 156.800 240.400 160.391 240.400 L 163.983 240.400 164.091 248.100 L 164.200 255.800 167.885 255.915 L 171.570 256.030 171.702 259.715 L 171.834 263.400 171.917 259.500 L 172.000 255.600 168.209 255.600 L 164.417 255.600 164.309 247.900 L 164.200 240.200 160.493 240.085 C 157.748 240.000,156.735 240.104,156.588 240.486 M235.881 240.253 C 235.726 240.407,235.600 243.923,235.600 248.067 L 235.600 255.600 231.800 255.600 L 228.000 255.600 228.083 259.500 L 228.166 263.400 228.298 259.715 L 228.430 256.030 232.115 255.915 L 235.800 255.800 235.909 248.100 L 236.017 240.400 239.609 240.400 L 243.200 240.400 243.200 255.600 L 243.200 270.800 239.680 270.800 C 235.193 270.800,235.181 270.814,235.277 275.580 L 235.355 279.400 235.577 275.400 L 235.800 271.400 239.600 271.200 L 243.400 271.000 243.400 255.600 L 243.400 240.200 239.781 240.086 C 237.790 240.023,236.035 240.098,235.881 240.253 M180.400 255.900 C 180.400 256.065,189.220 256.200,200.000 256.200 C 210.780 256.200,219.600 256.065,219.600 255.900 C 219.600 255.735,210.780 255.600,200.000 255.600 C 189.220 255.600,180.400 255.735,180.400 255.900 M176.000 263.600 L 171.800 263.843 176.100 263.922 C 178.752 263.970,180.400 263.847,180.400 263.600 C 180.400 263.380,180.355 263.235,180.300 263.278 C 180.245 263.321,178.310 263.466,176.000 263.600 M212.000 267.137 L 212.200 271.000 220.000 271.200 L 227.800 271.400 228.023 275.400 L 228.245 279.400 228.323 275.580 C 228.425 270.516,228.924 270.800,219.920 270.800 L 212.400 270.800 212.400 267.224 C 212.400 265.257,212.265 263.563,212.100 263.460 C 211.935 263.358,211.890 265.012,212.000 267.137 M219.599 263.700 C 219.600 263.865,221.535 263.970,223.900 263.933 C 228.268 263.864,227.747 263.707,222.499 263.509 C 220.904 263.449,219.599 263.535,219.599 263.700 M203.768 271.400 C 203.768 275.800,203.826 277.655,203.898 275.521 C 203.970 273.388,203.970 269.788,203.899 267.521 C 203.827 265.255,203.768 267.000,203.768 271.400 M172.086 271.274 C 171.761 271.599,171.626 273.023,171.677 275.580 L 171.755 279.400 171.977 275.400 L 172.200 271.400 184.085 271.294 L 195.971 271.188 196.108 274.995 L 196.246 278.802 196.223 274.901 L 196.200 271.000 184.386 270.894 C 175.532 270.815,172.450 270.910,172.086 271.274 M164.064 299.700 C 164.029 301.845,164.135 303.600,164.300 303.601 C 164.465 303.601,164.550 302.386,164.490 300.901 C 164.296 296.155,164.130 295.687,164.064 299.700 M235.746 299.800 C 235.747 302.000,235.814 302.849,235.895 301.687 C 235.976 300.524,235.976 298.724,235.893 297.687 C 235.811 296.649,235.745 297.600,235.746 299.800 M179.740 307.600 C 179.740 309.470,179.809 310.235,179.893 309.300 C 179.977 308.365,179.977 306.835,179.893 305.900 C 179.809 304.965,179.740 305.730,179.740 307.600 M220.140 307.600 C 220.140 309.470,220.209 310.235,220.293 309.300 C 220.377 308.365,220.377 306.835,220.293 305.900 C 220.209 304.965,220.140 305.730,220.140 307.600 M190.100 311.500 C 195.545 311.563,204.455 311.563,209.900 311.500 C 215.345 311.437,210.890 311.385,200.000 311.385 C 189.110 311.385,184.655 311.437,190.100 311.500 " stroke="none" fill="#626262" fill-rule="evenodd"></path><path id="path4" d="M156.144 100.800 C 156.144 102.890,156.212 103.745,156.294 102.700 C 156.376 101.655,156.376 99.945,156.294 98.900 C 156.212 97.855,156.144 98.710,156.144 100.800 M142.500 112.694 C 143.545 112.776,145.255 112.776,146.300 112.694 C 147.345 112.612,146.490 112.544,144.400 112.544 C 142.310 112.544,141.455 112.612,142.500 112.694 M253.700 112.694 C 254.745 112.776,256.455 112.776,257.500 112.694 C 258.545 112.612,257.690 112.544,255.600 112.544 C 253.510 112.544,252.655 112.612,253.700 112.694 M134.512 120.695 C 135.564 120.777,137.184 120.776,138.112 120.692 C 139.040 120.608,138.180 120.541,136.200 120.542 C 134.220 120.543,133.460 120.612,134.512 120.695 M262.112 120.695 C 263.164 120.777,264.784 120.776,265.712 120.692 C 266.640 120.608,265.780 120.541,263.800 120.542 C 261.820 120.543,261.060 120.612,262.112 120.695 M148.577 196.200 C 148.577 202.580,148.632 205.134,148.699 201.876 C 148.767 198.617,148.766 193.397,148.699 190.276 C 148.631 187.154,148.576 189.820,148.577 196.200 M251.377 196.200 C 251.377 202.580,251.432 205.134,251.499 201.876 C 251.567 198.617,251.566 193.397,251.499 190.276 C 251.431 187.154,251.376 189.820,251.377 196.200 M164.600 207.600 L 149.000 207.814 164.476 207.907 C 174.464 207.967,180.040 207.858,180.200 207.600 C 180.336 207.380,180.392 207.242,180.324 207.293 C 180.256 207.344,173.180 207.482,164.600 207.600 M227.526 207.900 C 231.776 207.964,238.616 207.964,242.726 207.899 C 246.837 207.834,243.360 207.781,235.000 207.781 C 226.640 207.782,223.277 207.835,227.526 207.900 M190.500 208.294 C 191.545 208.376,193.255 208.376,194.300 208.294 C 195.345 208.212,194.490 208.144,192.400 208.144 C 190.310 208.144,189.455 208.212,190.500 208.294 M206.112 208.295 C 207.164 208.377,208.784 208.376,209.712 208.292 C 210.640 208.208,209.780 208.141,207.800 208.142 C 205.820 208.143,205.060 208.212,206.112 208.295 M243.746 291.400 C 243.747 293.600,243.814 294.449,243.895 293.287 C 243.976 292.124,243.976 290.324,243.893 289.287 C 243.811 288.249,243.745 289.200,243.746 291.400 M158.512 295.495 C 159.564 295.577,161.184 295.576,162.112 295.492 C 163.040 295.408,162.180 295.341,160.200 295.342 C 158.220 295.343,157.460 295.412,158.512 295.495 M238.112 295.495 C 239.164 295.577,240.784 295.576,241.712 295.492 C 242.640 295.408,241.780 295.341,239.800 295.342 C 237.820 295.343,237.060 295.412,238.112 295.495 M167.200 303.475 C 173.531 303.762,180.310 303.775,180.139 303.500 C 180.037 303.335,176.498 303.235,172.276 303.278 C 168.054 303.321,165.770 303.410,167.200 303.475 M223.921 303.499 C 226.188 303.570,229.788 303.570,231.921 303.498 C 234.055 303.426,232.200 303.368,227.800 303.368 C 223.400 303.368,221.655 303.427,223.921 303.499 " stroke="none" fill="#848484" fill-rule="evenodd"></path></g></svg>